<svg xmlns="http://www.w3.org/2000/svg" viewBox="0 0 1300 1300" enable-background="new 0 0 1300 1300"><linearGradient id="a" gradientUnits="userSpaceOnUse" x1="-2415.413" y1="1314.398" x2="-2178.235" y2="-30.706" gradientTransform="matrix(-1 0 0 -1 -1645.438 1292.188)"><stop offset="0" stop-color="#FAAE42"/><stop offset="1" stop-color="#EF3E31"/></linearGradient><path fill="url(#a)" d="M301.9 22.8h699c153.5 0 278 124.5 278 278v699c0 153.5-124.5 278-278 278h-699c-153.5 0-278-124.5-278-278v-699c0-153.5 124.5-278 278-278z"/><linearGradient id="b" gradientUnits="userSpaceOnUse" x1="664.062" y1="43.032" x2="490.491" y2="1027.4"><stop offset="0" stop-color="#E39F3A"/><stop offset="1" stop-color="#D33929"/></linearGradient><path fill="url(#b)" d="M1083.2 1049.7s-48.7-81.2-130-81.2c-78.5 0-124.6 81.2-283 81.2-350.6 0-517.2-291.5-518.5-293.8L22.9 617.2V300.7c0-153.5 124.5-278 278-278H549l183.5 186.1c414.3 281.6 280.2 591.6 280.2 591.6s117.9 132.8 70.5 249.3z"/><path fill="#fff" d="M733.6 209c414.3 281.6 280.3 591.7 280.3 591.7s117.8 132.7 70.4 249.1c0 0-48.7-81.2-130-81.2-78.5 0-124.6 81.2-283 81.2-352 0-518.5-293.8-518.5-293.8 317 208.9 533.4 60.9 533.4 60.9-143-83.1-446.8-479.3-446.8-479.3 264.8 225.2 379.1 284.3 379.1 284.3-68.4-56.3-260-331.7-260-331.7 153.3 155.1 457.6 371 457.6 371C903 422.5 733.6 209 733.6 209z"/></svg>